<svg class="ribbon1" viewBox="0 0 95 169" xmlns="http://www.w3.org/2000/svg">
   <defs>
      <linearGradient id="middle-blue"
         gradientUnits="userSpaceOnUse"
            x1="7.5555525"
            y1="53.353249"
            x2="93.996719"
            y2="117.1035" >
         <stop
            style="stop-color:#004a61;stop-opacity:1"
            offset="0.07065217"
            id="stop26905" />
         <stop
            style="stop-color:#22c3c9;stop-opacity:1"
            offset="0.29166666"
            id="stop26907" />
         <stop
            style="stop-color:#004a61;stop-opacity:1"
            offset="0.39492756"
            id="stop26909" />
         <stop
            style="stop-color:#0a4d61;stop-opacity:1"
            offset="0.44248194"
            id="stop26921" />
         <stop
            style="stop-color:#1ba4ac;stop-opacity:1"
            offset="0.55049819"
            id="stop26923" />
         <stop
            style="stop-color:#22c2c9;stop-opacity:1"
            offset="0.60778987"
            id="stop26911" />
         <stop
            style="stop-color:#aedbea;stop-opacity:1"
            offset="0.692029"
            id="stop26913" />
         <stop
            style="stop-color:#22c0c9;stop-opacity:1"
            offset="0.75905794"
            id="stop26915" />
         <stop
         style="stop-color:#004a61;stop-opacity:1"
         offset="0.86956525"
         id="stop26917" />
      </linearGradient>
      <linearGradient id="middle-blue2"
         x1="55.200294"
         y1="142.88242"
         x2="77.240669"
         y2="128.43127"
            gradientUnits="userSpaceOnUse" >
         <stop
            style="stop-color:#004a61;stop-opacity:1"
            offset="0.02355069"
            id="stop22540" />
         <stop
            style="stop-color:#22c0c9;stop-opacity:1"
            offset="0.18115944"
            id="stop22538" />
         <stop
            style="stop-color:#99d8e5;stop-opacity:1"
            offset="0.41757247"
            id="stop28390" />
         <stop
            style="stop-color:#aedbea;stop-opacity:1"
            offset="0.47644931"
            id="stop22536" />
         <stop
            style="stop-color:#99d8e5;stop-opacity:1"
            offset="0.53170288"
            id="stop28388" />
         <stop
            style="stop-color:#22c3c9;stop-opacity:1"
            offset="0.79528987"
            id="stop21798" />
         <stop
         style="stop-color:#007185;stop-opacity:1"
         offset="1"
         id="stop19165" />
      </linearGradient>
      <linearGradient id="top-green"
         gradientTransform="scale(0.74474533,1.3427409)"
         x1="27.542019"
         y1="0.58603889"
         x2="14.196425"
         y2="40.902241"
         gradientUnits="userSpaceOnUse">
         <stop
            style="stop-color:#2b5404;stop-opacity:1"
            offset="0"
            id="stop16234" />
         <stop
            style="stop-color:#9cbf31;stop-opacity:1"
            offset="0.07880867"
            id="stop16236" />
         <stop
            style="stop-color:#9cbe32;stop-opacity:1"
            offset="0.25232974"
            id="stop16238" />
         <stop
            style="stop-color:#306300;stop-opacity:1"
            offset="0.39271241"
            id="stop16240" />
         <stop
            style="stop-color:#9bbe32;stop-opacity:1"
            offset="0.69879186"
            id="stop16242" />
         <stop
         style="stop-color:#2f530e;stop-opacity:1"
         offset="1"
         id="stop16244" />
      </linearGradient>
      <linearGradient id="bottom-green"
         gradientUnits="userSpaceOnUse"
         x1="82.050194"
         y1="135.48553"
         x2="94.446877"
         y2="168.48305">
         <stop
            style="stop-color:#6da300;stop-opacity:1"
            offset="0"
            id="stop5008" />
         <stop
            style="stop-color:#aed42b;stop-opacity:1"
            offset="0.25957611"
            id="stop15917" />
         <stop
            style="stop-color:#538a00;stop-opacity:1"
            offset="0.55032116"
            id="stop5010" />
         <stop
         style="stop-color:#2f530e;stop-opacity:1"
         offset="0.84420288"
         id="stop15911" />
      </linearGradient>
   </defs>
   <path
      style="display:inline;fill:url(#bottom-green);fill-opacity:1;stroke:none;"
      d="m 84.954469,136.94296 c 0.2101,0.05 -2.145997,4.45367 -2.311717,6.87806 -0.24244,3.5468 -0.008,7.33068 1.47546,10.56305 2.28364,4.9749 5.23202,8.32781 10.85522,12.33765 -5.34991,-1.87374 -6.60305,-3.44334 -9.09038,-6.11404 -3.23928,-3.47807 -5.586,-7.85773 -7.09008,-12.36156 -0.75414,-2.25818 -0.614463,-6.19278 -0.551433,-6.94717 0,0 2.46802,-1.64144 3.53488,-2.39955 0.53343,-0.37905 1.90272,-1.40028 2.03065,-1.52434 0.525,-0.50912 0.72721,-0.53207 1.1474,-0.4321 z"/>
   <path
      style="display:inline;fill:url(#middle-blue2);fill-opacity:1"
      d="m 58.208445,149.19841 c 0,0 7.066024,-0.9745 10.431797,-2.09224 3.771079,-1.25233 7.538344,-2.79899 10.76839,-5.11333 1.856159,-1.32995 4.471172,-4.63521 4.772112,-4.91464 0.30094,-0.27942 0.79352,-0.13049 0.79352,-0.13049 0,0 -2.784564,-2.809 -3.453154,-3.39434 -0.26955,-0.18892 -0.74148,-0.18604 -1.04619,0.17534 -0.30471,0.36139 -2.558045,3.37869 -4.13034,4.77911 -2.758074,2.45658 -5.969343,4.37472 -9.162534,6.23086 -7.344159,3.5638 -8.973601,4.45973 -8.973601,4.45973 z"/>
   <path
      style="display:inline;fill:url(#middle-blue);fill-opacity:1"
      d="M 53.859375,149.18944 C 49.378878,148.84733 44.859726,148.38899 40.527344,147.19921 34.853669,145.6411 28.865862,144.08905 24.191406,140.52343 16.452754,134.62046 9.7663191,126.50833 6.4140625,117.38477 3.63356,105.9623 3.3989607,96.993599 6.4920848,87.906198 9.585209,78.818797 16.320821,69.740067 16.863594,61.710309 17.081687,57.583051 10.976492,53.309526 9.264097,51.107743 c 1.453115,2.926978 5.70361,6.163424 5.251625,10.419125 -0.879523,9.808648 -8.270102,15.2393 -11.5020501,25.324694 -3.23194808,10.085394 -4.4538251,24.288108 -0.1308594,35.201168 4.2711057,10.78217 13.8659345,19.49629 23.9277345,25.30079 4.784155,2.7599 10.612292,3.50364 16.128906,3.83789 3.921276,0.2376 7.825869,-0.73034 11.708985,-1.32422 1.524888,-0.19005 3.579991,-0.68611 3.579991,-0.68611 0,0 -3.101522,0.0919 -4.369054,0.008 v -2e-5 z"/>
   <path
      style="display:inline;fill:url(#top-green);fill-opacity:1"
      d="M 9.477649,51.41585 C 8.0705253,46.873054 6.9451118,45.406247 6.6027836,42.209645 5.56957,32.561673 4.1665756,21.512305 9.1990993,13.216246 13.387188,6.3122284 29.599805,0.15251306 29.599805,0.15251306 l -5.43456,0.026077 c 0,0 -13.58839,5.96109664 -17.0592535,11.98084994 C 2.0881986,20.862138 2.4307798,32.344949 4.4718537,42.181067 5.1832705,45.609448 9.477649,51.41585 9.477649,51.41585 Z"/>
</svg>
